<svg xmlns="http://www.w3.org/2000/svg" width="1423.694" height="5262.227" viewBox="0 0 1423.694 5262.227">
  <g id="Group_514" data-name="Group 514" transform="translate(-309.746 -1928.59)">
    <path id="Path_62" data-name="Path 62" stroke="#62638e" d="M4664.328,5757.873s88.405,241.887-221.654,203.413-864.071-350.88-627.651,701.4" fill="none" transform="translate(-3253 -3828)" stroke-linecap="round" stroke-linejoin="round" stroke-width="2" stroke-dasharray="5 15"/>
    <g id="Group_513" data-name="Group 513">
      <path id="Path_63" data-name="Path 63" stroke="#62638e" d="M4760.756,6074.552s95.334-217.146-248.358-173.3-592.348,278.284-707.25,10.49" fill="none" transform="translate(-3240.262 -3070.645)" stroke-linecap="round" stroke-linejoin="round" stroke-width="2" stroke-dasharray="5 15"/>
      <path id="Path_64" data-name="Path 64" d="M4820.086,7646.707s30.094,171.683-438.489,36.509-761.514-103.866-769.438,120.377" transform="translate(-3270.748 -3923)" fill="none" stroke="#57576e" stroke-width="2" stroke-dasharray="5 15"/>
      <path id="Path_66" data-name="Path 66" stroke="#62638e" d="M3591.576,7810.714S3526.1,8332.9,3795.429,8287.9s1053.052-458,1041.736,16.717-194.989,669.405-595.88,577.242-678.868-179.934-676.6,110.3" fill="none" transform="translate(-3253 -3907.158)" stroke-linecap="round" stroke-linejoin="round" stroke-width="2" stroke-dasharray="5 15"/>
      <path id="Path_65" data-name="Path 65" stroke="#45455a" d="M4770.873,6937.337s-40.732,195.555,46.314,121.344,71.308,105.609-12.257,575.6" fill="none" transform="translate(-3253 -3923)" stroke-linecap="round" stroke-linejoin="round" stroke-width="2" stroke-dasharray="5 15"/>
      <path id="Path_67" data-name="Path 67" stroke="#45455a" d="M3564.375,9014.58s-19.8,435.3,175.189,579.8,1008.01-539.694,1032.384-109.68-198.468,724.236-647.634,644.152-534.472-43.524-530.99,134.053,3.482,651.116,306.407,658.08,1263.931-262.885,1056.758,191.5" fill="none" transform="translate(-3253 -3923)" stroke-linecap="round" stroke-linejoin="round" stroke-width="2" stroke-dasharray="5 10"/>
    </g>
  </g>
</svg>
